<svg xmlns="http://www.w3.org/2000/svg" width="32" height="32"><path data-name="Icon awesome-linkedin" d="M29.714 0H2.279A2.3 2.3 0 000 2.307v27.386A2.3 2.3 0 002.279 32h27.435A2.3 2.3 0 0032 29.693V2.307A2.3 2.3 0 0029.714 0zM9.671 27.429H4.929V12.157h4.75v15.272zM7.3 10.071a2.75 2.75 0 112.75-2.75 2.751 2.751 0 01-2.75 2.75zm20.15 17.358h-4.743V20c0-1.771-.036-4.05-2.464-4.05-2.471 0-2.85 1.929-2.85 3.921v7.557H12.65V12.157h4.55v2.086h.064a5 5 0 014.493-2.464c4.8 0 5.693 3.164 5.693 7.279z" fill="#222"/></svg>