<svg id="logo" xmlns="http://www.w3.org/2000/svg" viewBox="0 0 682 230"><defs><style>.cls-2{fill:#ffa293}.cls-3{fill:#ffc1b7}.cls-4{fill:#ffe0db}.cls-6{fill:#ff836f}</style></defs><path fill="none" d="M0 0h682v230H0z"/><g id="targenio_logo"><g id="bildmarke"><path class="cls-2" transform="rotate(90 85.145 85.025)" d="M77.07 76.96h16.16v16.13H77.07z"/><path class="cls-3" transform="rotate(90 73.05 80.99)" d="M69.01 76.96h8.08v8.05h-8.08z"/><path class="cls-4" transform="rotate(90 64.985 89.065)" d="M60.95 85.03h8.08v8.08h-8.08z"/><path class="cls-4" transform="rotate(90 58.93 83.01)" d="M56.91 80.99h4.04v4.04h-4.04z"/><path class="cls-3" transform="rotate(-90 87.165 121.975)" d="M81.11 115.93h12.12v12.08H81.11z"/><path class="cls-4" transform="rotate(-90 75.065 109.855)" d="M69.01 103.8h12.12v12.12H69.01z"/><path class="cls-4" transform="rotate(-90 59.925 118.945)" d="M56.89 115.91h6.06v6.06h-6.06z"/><path transform="rotate(-180 131.58 115.32)" fill="#ff644b" d="M93.21 76.95h76.74v76.74H93.21z"/><path class="cls-6" transform="rotate(-180 105.99 89.74)" d="M93.21 76.95h25.57v25.58H93.21z"/><path class="cls-2" transform="rotate(-180 105.99 115.32)" d="M93.21 102.53h25.57v25.58H93.21z"/><path class="cls-3" transform="rotate(-180 105.99 140.9)" d="M93.21 128.11h25.57v25.58H93.21z"/><path class="cls-6" transform="rotate(-180 131.575 115.32)" d="M118.79 102.53h25.57v25.58h-25.57z"/><path class="cls-2" transform="rotate(-180 131.575 140.9)" d="M118.79 128.11h25.57v25.58h-25.57z"/><path class="cls-6" transform="rotate(-180 157.155 140.9)" d="M144.37 128.11h25.57v25.58h-25.57z"/></g><path d="M222.19 110.89v23.51q0 9.25 8.63 9.26a18.51 18.51 0 005.2-.83v10.29a24.22 24.22 0 01-8.32 1.25q-9 0-13.73-5T209.18 135v-24.11h-10.09v-9.78h10.09v-12.8l13-4.37v17.17h13.94v9.78zm74.2-9.78v52.54h-12.8v-8.43a16.85 16.85 0 01-6.86 6.81 20.94 20.94 0 01-10.2 2.45 22.41 22.41 0 01-12.17-3.33 22 22 0 01-8.22-9.47 32.91 32.91 0 01-2.91-14.25 33.55 33.55 0 013-14.41 23.24 23.24 0 018.27-9.78 21.53 21.53 0 0112.07-3.49 20.94 20.94 0 0110.2 2.45 16.85 16.85 0 016.86 6.81v-7.9zm-16.33 38.7q3.53-4.47 3.53-12.59 0-8.32-3.53-12.8T270 110a12 12 0 00-10 4.63q-3.6 4.64-3.59 12.85t3.59 12.48q3.58 4.38 10.14 4.37t9.92-4.52zm61.85-39.12l-.11 11.86a18.11 18.11 0 00-6.86-1.35q-6.66 0-10.15 3.85t-3.48 10.19v28.41h-12.9V116a118 118 0 00-.84-14.87h12.18l1 9.26a15.58 15.58 0 016.24-7.81 17.69 17.69 0 019.67-2.7 14.79 14.79 0 015.25.81zm58.09.42V152q0 12.27-6.76 18.62T373.35 177a43.7 43.7 0 01-21.43-5.1L354 162a40.87 40.87 0 0019 5q14 0 14-13.94v-10.4a18.31 18.31 0 01-7 6.92 20.23 20.23 0 01-10.3 2.65 22.91 22.91 0 01-12.22-3.28 22 22 0 01-8.32-9.26 33 33 0 010-27.36 22 22 0 018.32-9.26 23 23 0 0112.22-3.28 21.46 21.46 0 0110.36 2.45 16.8 16.8 0 016.91 6.81v-7.9zm-16.59 36.62c2.46-2.85 3.69-6.76 3.69-11.76s-1.21-8.91-3.64-11.75-5.84-4.22-10.21-4.22-7.69 1.42-10.15 4.27-3.69 6.73-3.69 11.73 1.23 8.91 3.69 11.76S369 142 373.25 142s7.68-1.43 10.14-4.27zm74.47-9.68h-36.2q.4 8.43 4.21 12.43t11.29 4a25.92 25.92 0 0016-5.62l3.74 8.95a29.35 29.35 0 01-9.2 4.84 35 35 0 01-11.08 1.82q-12.9 0-20.29-7.29t-7.39-20a30.59 30.59 0 013.25-14.18 23.76 23.76 0 019.05-9.73 25.26 25.26 0 0113.21-3.49q10.81 0 17.12 7t6.29 19.3zm-31.57-15.86q-3.29 3.06-4.22 8.89h24.45q-.63-5.92-3.59-9t-8.17-3a11.86 11.86 0 00-8.47 3.11zm90.43 9.2v32.26h-13V122c0-4.16-.79-7.2-2.39-9.11s-4.06-2.86-7.39-2.86a12.67 12.67 0 00-9.57 3.8 13.89 13.89 0 00-3.64 10v29.76h-12.9V116a120.07 120.07 0 00-.83-14.87h12.17l.94 8.63a18.91 18.91 0 017.33-7.38 20.93 20.93 0 0110.46-2.61q18.81-.02 18.82 21.62zm11.7 32.26v-52.54h12.9v52.54zm35.82-2.5a22.76 22.76 0 01-9.37-9.52 30.63 30.63 0 01-3.27-14.51 30.67 30.67 0 013.27-14.52 22.81 22.81 0 019.37-9.52 28.86 28.86 0 0114.09-3.33 28.37 28.37 0 0113.94 3.33 22.87 22.87 0 019.32 9.52 30.67 30.67 0 013.27 14.52 30.63 30.63 0 01-3.27 14.51 22.81 22.81 0 01-9.32 9.52 28.37 28.37 0 01-13.94 3.33 28.86 28.86 0 01-14.09-3.33zM588.39 140c2.33-2.87 3.49-7.16 3.49-12.84s-1.18-9.9-3.54-12.85-5.69-4.42-10-4.42-7.73 1.47-10.09 4.42-3.54 7.23-3.54 12.85 1.17 10 3.49 12.84 5.67 4.32 10 4.32 7.87-1.48 10.19-4.32zm-60.78-62.72h14.46v12.8h-14.46z" fill="#222" id="wortmarke"/></g></svg>